<svg xmlns="http://www.w3.org/2000/svg" xmlns:xlink="http://www.w3.org/1999/xlink"><symbol viewBox="0 0 16 16" id="icon-backwards" xmlns="http://www.w3.org/2000/svg"><path d="M13.6 12c.5.3 1.1.2 1.4-.3 0-.2.2-.3.2-.5V4.8c0-.6-.4-1-1-1-.2 0-.4 0-.5.2L8.6 7.2c-.2.1-.3.2-.4.4V4.9c0-.6-.4-1-1-1-.2 0-.4 0-.5.2L1.5 7.2c-.5.3-.6.9-.3 1.4 0 .1.2.2.3.3l5.1 3.2c.5.3 1.1.2 1.4-.3 0-.2.2-.3.2-.5V8.6c0 .2.2.3.4.4l5.1 3.2Z" fill="currentcolor"/></symbol><symbol viewBox="0 0 16 16" fill="currentColor" id="icon-download" xmlns="http://www.w3.org/2000/svg"><path fill="currentcolor" d="M8 15A7 7 0 1 0 8 1a7 7 0 0 0 0 14Zm.75-10.25a.75.75 0 0 0-1.5 0v4.69L6.03 8.22a.75.75 0 0 0-1.06 1.06l2.5 2.5a.75.75 0 0 0 1.06 0l2.5-2.5a.75.75 0 1 0-1.06-1.06L8.75 9.44V4.75Z"/></symbol><symbol viewBox="0 0 16 16" fill="currentColor" class="csize-4" id="icon-forward" xmlns="http://www.w3.org/2000/svg"><path fill="currentcolor" d="M2.53 3.956A1 1 0 0 0 1 4.804v6.392a1 1 0 0 0 1.53.848l5.113-3.196c.16-.1.279-.233.357-.383v2.73a1 1 0 0 0 1.53.849l5.113-3.196a1 1 0 0 0 0-1.696L9.53 3.956A1 1 0 0 0 8 4.804v2.731a.992.992 0 0 0-.357-.383L2.53 3.956Z"/></symbol><symbol viewBox="0 0 512 512" id="icon-headphones" xmlns="http://www.w3.org/2000/svg"><!--!Font Awesome Free 6.6.0 by @fontawesome - https://fontawesome.com License - https://fontawesome.com/license/free Copyright 2024 Fonticons, Inc.--><path fill="currentcolor" d="M256 80C141.1 80 48 173.1 48 288v104c0 13.3-10.7 24-24 24S0 405.3 0 392V288C0 146.6 114.6 32 256 32s256 114.6 256 256v104c0 13.3-10.7 24-24 24s-24-10.7-24-24V288c0-114.9-93.1-208-208-208zM80 352c0-35.3 28.7-64 64-64h16c17.7 0 32 14.3 32 32v128c0 17.7-14.3 32-32 32h-16c-35.3 0-64-28.7-64-64v-64zm288-64c35.3 0 64 28.7 64 64v64c0 35.3-28.7 64-64 64h-16c-17.7 0-32-14.3-32-32V320c0-17.7 14.3-32 32-32h16z"/></symbol><symbol viewBox="0 0 16 16" fill="currentColor" class="esize-4" id="icon-heart" xmlns="http://www.w3.org/2000/svg"><path fill="currentcolor" d="M2 6.342a3.375 3.375 0 0 1 6-2.088 3.375 3.375 0 0 1 5.997 2.26c-.063 2.134-1.618 3.76-2.955 4.784a14.437 14.437 0 0 1-2.676 1.61c-.02.01-.038.017-.05.022l-.014.006-.004.002h-.002a.75.75 0 0 1-.592.001h-.002l-.004-.003-.015-.006a5.528 5.528 0 0 1-.232-.107 14.395 14.395 0 0 1-2.535-1.557C3.564 10.22 1.999 8.558 1.999 6.38L2 6.342Z"/></symbol><symbol viewBox="0 0 16 16" fill="currentColor" class="fsize-4" id="icon-info" xmlns="http://www.w3.org/2000/svg"><path fill="currentcolor" d="M15 8A7 7 0 1 1 1 8a7 7 0 0 1 14 0ZM9 5a1 1 0 1 1-2 0 1 1 0 0 1 2 0ZM6.75 8a.75.75 0 0 0 0 1.5h.75v1.75a.75.75 0 0 0 1.5 0v-2.5A.75.75 0 0 0 8.25 8h-1.5Z" clip-rule="evenodd"/></symbol><symbol viewBox="0 0 16 16" fill="currentColor" class="gsize-4" id="icon-loop" xmlns="http://www.w3.org/2000/svg"><path fill="currentcolor" d="M8 3.5c-.771 0-1.537.022-2.297.066a1.124 1.124 0 0 0-1.058 1.028l-.018.214a.75.75 0 1 1-1.495-.12l.018-.221a2.624 2.624 0 0 1 2.467-2.399 41.628 41.628 0 0 1 4.766 0 2.624 2.624 0 0 1 2.467 2.399c.056.662.097 1.329.122 2l.748-.748a.75.75 0 1 1 1.06 1.06l-2 2.001a.75.75 0 0 1-1.061 0l-2-1.999a.75.75 0 0 1 1.061-1.06l.689.688a39.89 39.89 0 0 0-.114-1.815 1.124 1.124 0 0 0-1.058-1.028A40.138 40.138 0 0 0 8 3.5ZM3.22 7.22a.75.75 0 0 1 1.061 0l2 2a.75.75 0 1 1-1.06 1.06l-.69-.69c.025.61.062 1.214.114 1.816.048.56.496.996 1.058 1.028a40.112 40.112 0 0 0 4.594 0 1.124 1.124 0 0 0 1.058-1.028 39.2 39.2 0 0 0 .018-.219.75.75 0 1 1 1.495.12l-.018.226a2.624 2.624 0 0 1-2.467 2.399 41.648 41.648 0 0 1-4.766 0 2.624 2.624 0 0 1-2.467-2.399 41.395 41.395 0 0 1-.122-2l-.748.748A.75.75 0 1 1 1.22 9.22l2-2Z" clip-rule="evenodd"/></symbol><symbol viewBox="0 0 16 16" fill="currentColor" class="hsize-4" id="icon-music-note" xmlns="http://www.w3.org/2000/svg"><path d="M14 1.75a.75.75 0 0 0-.89-.737l-7.502 1.43a.75.75 0 0 0-.61.736v2.5c0 .018 0 .036.002.054V9.73a1 1 0 0 1-.813.983l-.58.11a1.978 1.978 0 0 0 .741 3.886l.603-.115c.9-.171 1.55-.957 1.55-1.873v-1.543l-.001-.043V6.3l6-1.143v3.146a1 1 0 0 1-.813.982l-.584.111a1.978 1.978 0 0 0 .74 3.886l.326-.062A2.252 2.252 0 0 0 14 11.007V1.75Z"/></symbol><symbol viewBox="0 0 16 16" fill="currentColor" class="isize-4" id="icon-play" xmlns="http://www.w3.org/2000/svg"><path d="M3 3.732a1.5 1.5 0 0 1 2.305-1.265l6.706 4.267a1.5 1.5 0 0 1 0 2.531l-6.706 4.268A1.5 1.5 0 0 1 3 12.267V3.732Z"/></symbol><symbol viewBox="0 0 16 16" fill="currentColor" class="jsize-4" id="icon-queue-list" xmlns="http://www.w3.org/2000/svg"><path d="M2 4a2 2 0 0 1 2-2h8a2 2 0 1 1 0 4H4a2 2 0 0 1-2-2Zm0 5.25a.75.75 0 0 1 .75-.75h10.5a.75.75 0 0 1 0 1.5H2.75A.75.75 0 0 1 2 9.25Zm.75 3.25a.75.75 0 0 0 0 1.5h10.5a.75.75 0 0 0 0-1.5H2.75Z"/></symbol><symbol viewBox="0 0 512 512" id="icon-shuffle" xmlns="http://www.w3.org/2000/svg"><!--!Font Awesome Free 6.6.0 by @fontawesome - https://fontawesome.com License - https://fontawesome.com/license/free Copyright 2024 Fonticons, Inc.--><path fill="red" d="M403.8 34.4c12-5 25.7-2.2 34.9 6.9l64 64c6 6 9.4 14.1 9.4 22.6s-3.4 16.6-9.4 22.6l-64 64c-9.2 9.2-22.9 11.9-34.9 6.9S384 204.8 384 191.8v-32h-32c-10.1 0-19.6 4.7-25.6 12.8L284 229.3 244 176l31.2-41.6C293.3 110.2 321.8 96 352 96h32V64c0-12.9 7.8-24.6 19.8-29.6zM164 282.7l40 53.3-31.2 41.6C154.7 401.8 126.2 416 96 416H32c-17.7 0-32-14.3-32-32s14.3-32 32-32h64c10.1 0 19.6-4.7 25.6-12.8l42.4-56.5zm274.6 188c-9.2 9.2-22.9 11.9-34.9 6.9S383.9 461 383.9 448v-32h-32c-30.2 0-58.7-14.2-76.8-38.4L121.6 172.8c-6-8.1-15.5-12.8-25.6-12.8H32c-17.7 0-32-14.3-32-32s14.3-32 32-32h64c30.2 0 58.7 14.2 76.8 38.4l153.6 204.8c6 8.1 15.5 12.8 25.6 12.8h32v-32c0-12.9 7.8-24.6 19.8-29.6s25.7-2.2 34.9 6.9l64 64c6 6 9.4 14.1 9.4 22.6s-3.4 16.6-9.4 22.6l-64 64z"/></symbol><symbol viewBox="0 0 16 16" fill="currentColor" class="lsize-4" id="icon-speaker-high" xmlns="http://www.w3.org/2000/svg"><path d="M7.557 2.066A.75.75 0 0 1 8 2.75v10.5a.75.75 0 0 1-1.248.56L3.59 11H2a1 1 0 0 1-1-1V6a1 1 0 0 1 1-1h1.59l3.162-2.81a.75.75 0 0 1 .805-.124Zm5.393.984a.75.75 0 1 0-1.06 1.06 5.5 5.5 0 0 1 0 7.78.75.75 0 1 0 1.06 1.06 7 7 0 0 0 0-9.9Z"/><path d="M10.828 5.172a.75.75 0 1 0-1.06 1.06 2.5 2.5 0 0 1 0 3.536.75.75 0 1 0 1.06 1.06 4 4 0 0 0 0-5.656Z"/></symbol><symbol viewBox="0 0 448 512" id="icon-speaker-low" xmlns="http://www.w3.org/2000/svg"><path d="M301.1 34.8C312.6 40 320 51.4 320 64v384c0 12.6-7.4 24-18.9 29.2s-25 3.1-34.4-5.3L131.8 352H64c-35.3 0-64-28.7-64-64v-64c0-35.3 28.7-64 64-64h67.8L266.7 40.1c9.4-8.4 22.9-10.4 34.4-5.3zm111.5 146.7c21.5 17.6 35.4 44.4 35.4 74.5s-13.9 56.9-35.4 74.5c-10.3 8.4-25.4 6.8-33.8-3.5s-6.8-25.4 3.5-33.8C393.1 284.4 400 271 400 256s-6.9-28.4-17.7-37.3c-10.3-8.4-11.8-23.5-3.5-33.8s23.5-11.8 33.8-3.5z"/></symbol><symbol viewBox="0 0 16 16" fill="currentColor" class="nsize-4" id="icon-star" xmlns="http://www.w3.org/2000/svg"><path fill-rule="evenodd" d="M8 1.75a.75.75 0 0 1 .692.462l1.41 3.393 3.664.293a.75.75 0 0 1 .428 1.317l-2.791 2.39.853 3.575a.75.75 0 0 1-1.12.814L7.998 12.08l-3.135 1.915a.75.75 0 0 1-1.12-.814l.852-3.574-2.79-2.39a.75.75 0 0 1 .427-1.318l3.663-.293 1.41-3.393A.75.75 0 0 1 8 1.75Z" clip-rule="evenodd"/></symbol></svg>